Coordinates
version=1
nRows=9
nColumns=24
inDegrees=yes

Units are S.I. units (second, meters, Newtons, ...)
Angles are in degrees.

endheader
time	pelvis_tilt	pelvis_list	pelvis_rotation	pelvis_tx	pelvis_ty	pelvis_tz	hip_flexion_r	hip_adduction_r	hip_rotation_r	knee_angle_r	ankle_angle_r	subtalar_angle_r	mtp_angle_r	hip_flexion_l	hip_adduction_l	hip_rotation_l	knee_angle_l	ankle_angle_l	subtalar_angle_l	mtp_angle_l	lumbar_extension	lumbar_bending	lumbar_rotation
      6.02000000	     13.17062447	     -5.56554504	    -15.48753452	      1.46000443	      0.80763870	     -0.06543660	    -32.86663253	     -0.09283729	     14.17939778	     -6.43838386	     20.49626845	     12.08048616	      0.00000000	      6.69160783	     -6.11521292	     -4.20748315	     -0.08845785	      3.90800568	    -13.08185026	      0.00000000	    -34.35903726	     -2.65643023	     13.93306796
      6.03000000	     13.46399914	     -5.54070703	    -15.95175669	      1.47436893	      0.80659966	     -0.06605217	    -33.75065723	     -0.84452058	     13.95291263	     -7.16787622	     20.01844797	     12.98031324	      0.00000000	      6.16731429	     -5.80984299	     -3.34684368	      0.11080270	      3.77954728	    -13.16005386	      0.00000000	    -34.45530464	     -2.81250672	     14.31057335
      6.04000000	     13.83324109	     -5.21627914	    -16.33663158	      1.48918982	      0.80575443	     -0.06680764	    -34.58913707	     -1.83878293	     13.54906562	     -8.02599821	     19.36761254	     13.79340255	      0.00000000	      5.74905001	     -5.09451114	     -2.43780223	     -0.36016382	      3.56473238	    -13.68193467	      0.00000000	    -34.46626797	     -3.25115738	     14.34373895
      6.05000000	     14.25170568	     -4.81566407	    -16.68655426	      1.50416711	      0.80516456	     -0.06768412	    -35.32306165	     -2.86485682	     13.04870350	     -9.12959000	     18.49593558	     14.53519529	      0.00000000	      5.41268678	     -4.22219291	     -1.47673933	     -1.43578094	      3.26693025	    -14.48800822	      0.00000000	    -34.49901084	     -3.73909103	     14.25418592
      6.06000000	     14.68260586	     -4.28584141	    -16.97584125	      1.51940205	      0.80477108	     -0.06870010	    -35.92632344	     -3.94263448	     12.50090545	    -10.44480088	     17.36549853	     15.14461978	      0.00000000	      5.21348205	     -3.14016257	     -0.56224040	     -3.03418167	      2.87228218	    -15.40504087	      0.00000000	    -34.46300986	     -4.31208002	     14.01332666
      6.07000000	     15.24833579	     -3.74942623	    -17.19358594	      1.53474031	      0.80469960	     -0.06991599	    -36.48979909	     -4.99010989	     11.67023646	    -12.06201500	     15.96978393	     15.77727537	      0.00000000	      4.92913428	     -1.93587898	      0.54405085	     -4.94827777	      2.18075859	    -16.71821226	      0.00000000	    -34.57184615	     -4.87859041	     13.77110534
      6.08000000	     15.69780560	     -3.09251472	    -17.31158565	      1.55031167	      0.80472486	     -0.07119967	    -36.78210361	     -6.00011973	     10.89329799	    -13.89790317	     14.22785860	     16.16553611	      0.00000000	      4.92891882	     -0.59921483	      1.25380759	     -7.24430718	      1.66272600	    -17.42957215	      0.00000000	    -34.47036997	     -5.48672100	     13.36369795
      6.09000000	     16.12679268	     -2.46447010	    -17.36093193	      1.56599771	      0.80494063	     -0.07256865	    -36.88381640	     -6.89426839	     10.12707753	    -16.00537952	     12.13207894	     16.39605780	      0.00000000	      4.97575779	      0.73272247	      1.77164124	     -9.69548177	      1.24831437	    -17.94331812	      0.00000000	    -34.31976705	     -6.01248811	     12.97037328
      6.10000000	     16.49990040	     -1.91353481	    -17.39149740	      1.58166055	      0.80536032	     -0.07384082	    -36.73402035	     -7.62829319	      9.56610931	    -18.39734434	      9.65442540	     16.33036025	      0.00000000	      5.04025590	      1.95416232	      1.98056178	    -12.16547685	      1.05117874	    -18.09479988	      0.00000000	    -34.11500854	     -6.46265858	     12.64967210
